<?xml version="1.0" encoding="UTF-8"?>
<svg id="Layer_1" data-name="Layer 1" xmlns="http://www.w3.org/2000/svg" viewBox="0 0 30 30">
  <g>
    <rect x=".48" y=".49" width="28.98" height="28.98"/>
    <path d="M28.96.99v27.98H.98V.99h27.98M29.96,0H-.02v29.98h29.98V0h0Z"/>
  </g>
  <g>
    <path d="M5.34,27.5h-.48l-.1-9.1h.41c.31,5.93,2.32,8.48,4.5,8.48,1.7,0,2.93-1.98,2.93-4.5,0-6.64-7.6-8.62-7.56-15.13,0-2.9,1.81-5.25,4.5-5.25,2.15,0,3.24,1.6,3.41-.41h.51l.1,8.38h-.41c-.27-5.04-1.84-7.33-3.82-7.33-1.29,0-2.28,1.33-2.28,3.3,0,5.83,7.6,7.39,7.6,14.82,0,3.88-1.94,6.75-5.15,6.75-2.62,0-4.02-2.11-4.16-.03Z" style="fill: #fff;"/>
    <path d="M17.61,25.05V4.68c0-1.23-.44-1.74-1.47-1.74v-.55h8.89c.78,0,.99-.2.99-.78h.51l.51,7.22h-.54c-.51-3.88-1.33-5.79-4.02-5.79h-.54c-1.19,0-1.6.38-1.6,1.81v7.43c.99,0,2.15.03,2.93-.07,1.02-.1,1.29-.92,1.43-3.95h.51v9h-.51c-.14-3.37-.41-4.12-1.43-4.23-.78-.07-1.94-.07-2.93-.07v12.1c0,1.16.44,1.6,1.87,1.6v.54h-6.1v-.54c1.12,0,1.5-.48,1.5-1.6Z" style="fill: #fff;"/>
  </g>
</svg>