<?xml version="1.0" encoding="UTF-8"?>
<svg id="Layer_2" data-name="Layer 2" xmlns="http://www.w3.org/2000/svg" viewBox="0 0 177.31 39.56">
  <g id="Layer_1-2" data-name="Layer 1">
    <g>
      <path d="M11.84,1h153.64c5.98,0,10.84,4.86,10.84,10.84v5.13c0,5.98-4.86,10.84-10.84,10.84H11.84c-5.98,0-10.84-4.86-10.84-10.84v-5.13C1,5.86,5.86,1,11.84,1Z" style="fill: none; stroke: #fdfefe; stroke-miterlimit: 10; stroke-width: 2px;"/>
      <text transform="translate(10.45 18.76)" style="fill: #fff; font-family: Outfit-SemiBold, Outfit; font-size: 13.84px; font-weight: 600;"><tspan x="0" y="0" style="letter-spacing: 0em;">GO</tspan><tspan x="22.1" y="0">OD VIBE GUID</tspan><tspan x="114.25" y="0" style="letter-spacing: -.02em;">E</tspan><tspan x="122.33" y="0" style="letter-spacing: 0em;">S</tspan></text>
      <g>
        <path d="M153.39,13.4c-.15-.11-.32-.17-.52-.17s-.37.06-.51.17c-.15.11-.26.28-.34.5-.08.22-.12.5-.12.83s.04.61.12.84c.08.22.2.39.34.5.15.11.32.17.52.17s.37-.06.52-.17c.15-.11.26-.28.34-.5.08-.22.12-.5.12-.83s-.04-.61-.12-.83c-.08-.22-.2-.39-.35-.5Z" style="fill: #fff;"/>
        <path d="M158.57,5.54h-8.78c-2.83,0-5.13,2.3-5.13,5.13v7.39c0,2.83,2.3,5.13,5.13,5.13h8.78c2.83,0,5.13-2.3,5.13-5.13v-7.39c0-2.83-2.3-5.13-5.13-5.13ZM150.58,16.94h-3.09v-.49l1.66-1.74c.12-.13.21-.24.29-.34.07-.1.13-.19.16-.28.03-.09.05-.18.05-.27,0-.18-.06-.33-.18-.43-.12-.1-.27-.16-.46-.16s-.36.05-.51.15c-.15.1-.29.26-.42.48l-.58-.5c.18-.3.39-.52.66-.68.26-.15.56-.23.9-.23.29,0,.54.06.76.17s.38.27.5.47c.12.2.18.44.18.7,0,.18-.02.34-.07.49-.04.15-.12.29-.22.44-.1.14-.24.31-.42.49l-.97.99h1.77v.74ZM154.48,15.94c-.16.34-.38.61-.66.79-.28.19-.59.28-.93.28s-.66-.09-.94-.28c-.28-.19-.5-.45-.67-.8-.17-.34-.25-.74-.25-1.2s.08-.85.25-1.19c.16-.34.38-.6.66-.79.28-.19.59-.28.93-.28s.67.09.95.28c.28.19.5.45.66.79.16.34.24.74.24,1.2s-.08.86-.24,1.2ZM158.2,16.94h-3.09v-.49l1.66-1.74c.12-.13.21-.24.29-.34.07-.1.13-.19.16-.28.03-.09.05-.18.05-.27,0-.18-.06-.33-.18-.43-.12-.1-.27-.16-.46-.16s-.36.05-.51.15c-.15.1-.29.26-.42.48l-.58-.5c.18-.3.39-.52.66-.68.26-.15.56-.23.9-.23.29,0,.54.06.76.17.22.11.38.27.5.47.12.2.18.44.18.7,0,.18-.02.34-.07.49-.04.15-.12.29-.22.44-.1.14-.24.31-.42.49l-.97.99h1.77v.74ZM161.47,16.28c-.14.23-.34.4-.59.53-.25.13-.55.19-.89.19-.31,0-.58-.05-.84-.16-.25-.11-.46-.26-.63-.46l.57-.56c.08.13.2.23.36.3.16.08.33.11.52.11.17,0,.32-.03.45-.09.13-.06.23-.15.3-.27.07-.11.11-.25.11-.4,0-.16-.04-.3-.11-.41-.07-.11-.17-.2-.29-.26-.12-.06-.26-.09-.41-.09-.16,0-.3.02-.43.06-.13.04-.25.1-.37.19l-.41-.4.2-2.04h2.42v.74h-1.73l-.1.92c.07-.03.14-.07.22-.09.11-.03.24-.04.39-.04.32,0,.59.07.81.2.22.13.38.31.49.53.11.22.17.46.17.73,0,.29-.07.55-.21.77Z" style="fill: #fff;"/>
      </g>
      <text transform="translate(72.5 37.21)" style="fill: #fff; font-family: Outfit-SemiBold, Outfit; font-size: 6.15px; font-weight: 600;"><tspan x="0" y="0">BE</tspan><tspan x="7.59" y="0" style="letter-spacing: -.01em;">R</tspan><tspan x="11.44" y="0">LIN, DE</tspan></text>
    </g>
  </g>
</svg>